 <svg  version="1.0" xmlns="http://www.w3.org/2000/svg"  width="286.000000pt" height="220.000000pt" viewBox="0 0 286.000000 220.000000"  preserveAspectRatio="xMidYMid meet">  <g transform="translate(0.000000,220.000000) scale(0.100000,-0.100000)" fill="#0a81ff" stroke="none"> <path d="M618 1564 l-518 -414 0 -41 c0 -31 6 -47 28 -67 15 -15 165 -136 332 -269 168 -132 393 -311 500 -397 107 -85 200 -155 206 -156 7 0 56 54 110 121 71 88 95 124 88 134 -8 13 -688 567 -749 612 l-25 18 375 304 c207 168 374 310 373 318 -4 16 -179 240 -193 246 -5 2 -243 -182 -527 -409z m605 268 c37 -47 67 -94 67 -103 0 -10 -50 -58 -117 -112 -334 -269 -531 -431 -561 -459 -61 -59 -61 -59 248 -308 106 -86 236 -192 369 -300 50 -41 91 -81 91 -90 0 -22 -139 -190 -157 -190 -15 0 -77 46 -282 210 -58 47 -145 116 -194 153 -48 38 -107 85 -131 105 -24 20 -89 73 -146 117 -292 229 -296 234 -267 278 8 13 122 108 252 213 131 104 319 254 419 334 264 212 315 250 329 244 6 -3 42 -44 80 -92z"/> <path d="M1631 1855 c-50 -64 -94 -121 -97 -128 -3 -8 21 -33 53 -59 32 -24 195 -156 363 -292 168 -136 312 -252 320 -256 10 -6 12 -12 5 -18 -19 -17 -718 -583 -746 -605 -16 -11 -29 -24 -29 -29 0 -14 193 -243 208 -246 7 -2 26 7 40 21 15 13 246 198 514 411 268 213 494 397 503 409 18 26 19 66 2 87 -7 9 -214 177 -462 374 -247 197 -474 378 -504 402 -29 24 -59 44 -65 44 -7 0 -54 -52 -105 -115z m207 3 c42 -35 83 -68 92 -75 8 -7 141 -113 294 -235 154 -123 327 -260 385 -305 58 -46 114 -95 123 -110 27 -42 15 -57 -140 -176 -38 -29 -67 -53 -177 -142 -34 -27 -75 -60 -92 -73 -16 -12 -43 -33 -59 -46 -16 -14 -114 -92 -219 -176 -104 -83 -207 -165 -229 -183 -21 -18 -53 -41 -71 -52 -29 -17 -35 -18 -50 -5 -34 28 -146 173 -142 184 5 14 133 122 438 368 306 246 314 255 294 301 -6 16 -118 110 -230 197 -57 43 -328 264 -354 288 -13 12 -46 39 -73 59 -26 21 -48 42 -48 49 0 24 142 194 162 194 11 0 54 -28 96 -62z"/> </g> </svg> 